<?xml version="1.0" standalone="no"?>
<!DOCTYPE svg PUBLIC "-//W3C//DTD SVG 20010904//EN"
 "http://www.w3.org/TR/2001/REC-SVG-20010904/DTD/svg10.dtd">
<svg version="1.0" xmlns="http://www.w3.org/2000/svg"
 width="626.000000pt" height="417.000000pt" viewBox="0 0 626.000000 417.000000"
 preserveAspectRatio="xMidYMid meet">

<g transform="translate(0.000000,417.000000) scale(0.100000,-0.100000)"
fill="#000000" stroke="none">
<path d="M1925 3703 c-58 -11 -102 -30 -122 -52 -15 -17 -33 -25 -60 -25 -95
-4 -246 -113 -305 -222 -36 -67 -80 -200 -127 -384 -89 -350 -127 -474 -141
-465 -5 3 -12 -5 -16 -17 -7 -22 -7 -22 -15 -3 -6 15 -8 12 -8 -17 -1 -37 -16
-59 -23 -36 -3 8 -11 6 -25 -7 -28 -27 -93 -113 -93 -124 0 -5 -7 -14 -15 -21
-9 -7 -13 -15 -10 -18 3 -3 -2 -14 -12 -24 -9 -10 -13 -18 -9 -18 4 0 -4 -12
-18 -26 -13 -15 -30 -38 -37 -53 -7 -14 -23 -40 -36 -57 -12 -18 -25 -51 -29
-74 -4 -23 -12 -44 -19 -46 -14 -6 -45 -80 -48 -113 -1 -12 -13 -25 -29 -32
-23 -9 -28 -18 -28 -45 0 -50 -23 -174 -32 -174 -4 0 -8 -11 -8 -24 0 -14 -6
-31 -14 -38 -8 -8 -32 -59 -55 -113 -23 -55 -45 -102 -49 -105 -4 -3 -20 -34
-37 -70 -16 -36 -43 -86 -61 -111 -17 -25 -35 -57 -39 -70 -11 -34 -74 -162
-85 -173 -6 -6 -10 -18 -10 -27 0 -10 -4 -19 -10 -21 -5 -2 -12 -30 -16 -63
-3 -34 -14 -72 -25 -87 -10 -15 -19 -36 -19 -47 0 -11 -4 -23 -10 -26 -5 -3
-10 -13 -10 -22 0 -8 -9 -27 -20 -43 -11 -15 -17 -30 -13 -34 3 -3 2 -6 -4 -6
-5 0 -24 -36 -42 -80 -19 -44 -37 -80 -41 -80 -4 0 -18 -33 -31 -73 -12 -39
-29 -76 -36 -80 -7 -4 -13 -19 -13 -32 0 -14 -4 -25 -10 -25 -6 0 -10 -40 -10
-100 l0 -100 255 0 c236 0 255 1 255 18 0 21 44 197 59 235 14 35 14 50 1 42
-5 -3 -10 -15 -10 -26 0 -32 -19 -21 -26 15 -8 45 2 59 37 54 37 -6 37 9 -1
52 -36 41 -38 68 -11 189 11 47 34 151 51 231 17 80 35 168 41 195 27 123 102
381 115 395 13 13 20 12 67 -4 71 -25 104 -50 128 -98 15 -30 25 -39 39 -35
28 7 64 -36 61 -73 -6 -63 -5 -159 4 -275 11 -158 26 -204 20 -60 -5 98 -4
107 9 85 l14 -24 4 24 c1 14 11 26 21 28 21 4 22 -18 3 -56 -8 -17 -10 -35 -5
-47 7 -19 8 -19 8 2 1 12 6 34 11 49 l11 27 36 -51 c33 -48 63 -67 63 -41 0 7
-15 32 -33 58 -18 25 -52 78 -76 116 -24 39 -49 73 -54 77 -6 3 -13 34 -15 67
-4 60 -6 62 -55 102 -28 22 -97 81 -154 132 -116 103 -112 91 -66 206 l25 64
-17 89 c-14 73 -15 95 -5 113 16 30 75 62 138 75 28 7 61 22 74 35 19 18 128
65 152 65 3 0 17 -12 31 -26 14 -14 32 -27 40 -28 15 -2 67 -74 109 -152 15
-27 38 -63 51 -78 30 -35 41 -85 27 -124 -6 -17 -6 -35 -1 -43 6 -10 9 -8 9
10 0 13 3 21 8 17 4 -4 7 -54 8 -109 0 -56 4 -172 8 -257 l8 -155 -31 50 c-16
28 -64 95 -105 150 -42 55 -76 107 -76 115 0 9 -9 16 -19 16 -23 0 -17 -14 34
-87 18 -25 40 -61 49 -80 9 -19 40 -60 70 -91 42 -44 59 -72 76 -125 13 -37
24 -70 26 -71 1 -2 21 -1 43 3 35 6 41 10 41 31 0 17 10 31 33 44 33 21 83 27
72 10 -3 -5 -1 -10 5 -10 7 0 10 6 7 13 -6 16 18 45 71 84 42 30 82 35 82 8 0
-6 9 -22 20 -35 11 -13 20 -26 20 -29 0 -3 11 -19 25 -35 14 -16 25 -33 25
-37 0 -5 10 -13 21 -20 17 -9 20 -8 13 2 -4 8 -7 54 -6 104 2 73 7 100 27 138
22 45 24 56 19 168 -3 84 -1 125 7 135 6 8 9 24 6 36 -4 12 7 60 23 109 17 48
30 100 30 116 l-1 28 -14 -25 c-8 -14 -15 -34 -15 -45 0 -11 -5 -27 -11 -35
-20 -28 -1 59 22 103 15 30 21 59 21 105 0 34 3 60 8 57 4 -3 10 2 14 10 3 8
1 15 -4 15 -6 0 -10 14 -10 30 0 23 4 30 20 30 11 0 26 -10 34 -22 16 -25 19
-75 5 -84 -5 -3 -9 -24 -9 -47 0 -23 -8 -80 -16 -127 -11 -55 -17 -155 -19
-280 -2 -107 -6 -220 -9 -250 -18 -171 -40 -280 -58 -280 -4 0 -8 -7 -8 -15 0
-8 -6 -15 -12 -15 -7 0 6 -17 30 -39 23 -21 42 -44 42 -49 0 -6 -18 -30 -40
-53 -22 -23 -38 -44 -35 -47 2 -3 20 12 39 32 32 35 33 36 28 11 -2 -14 -20
-38 -40 -53 l-35 -27 29 -5 c23 -4 30 -11 32 -34 4 -36 -15 -84 -40 -97 -10
-5 -17 -15 -16 -22 4 -17 -42 -78 -53 -72 -5 4 -6 0 -3 -8 7 -19 -79 -96 -117
-104 -20 -4 -28 -10 -25 -19 3 -8 1 -14 -4 -14 -5 0 -15 -6 -22 -13 -8 -6 -25
-19 -39 -27 -15 -8 -69 -43 -120 -77 -52 -35 -100 -63 -106 -63 -7 0 -12 -5
-10 -12 1 -6 -13 -16 -30 -21 -18 -5 -33 -14 -33 -18 0 -11 -78 -31 -90 -24
-6 4 -9 1 -8 -6 2 -7 -1 -13 -7 -14 -5 0 -31 -12 -57 -28 -26 -15 -57 -27 -71
-27 -37 0 -89 20 -117 45 -34 30 -64 45 -92 45 l-23 -1 23 -19 c13 -11 33 -39
46 -62 l23 -43 216 -3 216 -2 -5 32 c-4 22 0 40 10 53 13 16 15 17 10 3 -4
-12 -1 -18 10 -18 9 0 16 5 16 10 0 6 5 10 11 10 7 0 17 7 24 16 10 14 15 9
33 -34 12 -28 22 -55 22 -61 0 -17 517 -15 523 2 4 9 6 9 6 -1 1 -7 5 -11 9
-8 5 3 3 38 -5 78 -15 83 -29 308 -20 308 4 0 16 -17 26 -39 13 -24 30 -41 46
-45 14 -4 25 -11 25 -16 0 -15 58 -70 62 -58 2 6 32 -14 67 -43 34 -30 90 -74
124 -97 34 -24 73 -55 88 -68 24 -23 30 -24 178 -24 l152 0 -22 31 c-12 18
-35 39 -50 48 -16 9 -33 26 -40 38 -7 13 -19 20 -30 18 -12 -2 -36 14 -66 44
-26 27 -72 65 -101 85 -65 45 -136 113 -122 118 6 2 4 13 -4 30 -8 15 -10 28
-5 30 11 4 -78 108 -92 108 -17 0 -9 -16 29 -60 25 -30 29 -39 14 -28 -25 17
-73 82 -71 95 3 14 -34 93 -42 93 -5 0 -12 -18 -15 -41 -6 -35 -10 -40 -28
-35 -12 3 -29 6 -40 6 -15 0 -16 3 -6 15 7 8 18 15 25 15 12 0 25 21 25 40 0
5 -23 16 -51 25 -27 9 -55 26 -62 36 -15 24 -27 24 -27 2 -1 -13 -5 -10 -16
10 -18 33 -10 54 14 35 12 -11 16 -11 20 0 2 7 15 17 28 22 16 6 24 17 24 33
0 13 13 36 29 51 l29 28 26 -34 c14 -19 47 -49 73 -68 60 -42 35 -11 -50 62
-53 47 -59 49 -71 33 -9 -13 -20 -16 -39 -11 -64 16 -77 62 -71 266 2 85 3
162 3 170 0 8 0 40 1 70 1 30 1 143 0 251 -1 111 3 199 8 203 5 3 8 33 6 66
-2 34 1 71 6 83 5 12 14 41 20 64 8 33 17 44 35 49 16 4 25 13 25 25 0 10 4
19 8 19 5 0 13 17 18 38 7 28 15 38 33 40 l23 4 -3 -134 c-4 -132 -4 -133 19
-136 40 -6 25 -30 -23 -38 -25 -3 -47 -5 -49 -3 -2 2 1 32 7 67 10 59 9 64
-11 84 -21 22 -22 22 -24 3 -4 -51 -7 -72 -16 -102 -8 -25 -7 -31 3 -27 15 6
43 -101 49 -189 13 -173 19 -237 25 -237 4 0 23 21 43 48 20 26 47 57 61 70
l24 23 18 -28 c10 -15 29 -43 42 -60 l24 -33 32 23 c18 12 35 26 39 32 16 22
-71 131 -137 169 -45 27 -72 60 -57 70 5 3 29 8 53 12 28 5 54 17 72 36 24 23
32 26 49 17 18 -10 18 -12 4 -28 -24 -26 -20 -51 7 -51 13 0 28 5 34 11 17 17
66 -32 69 -70 1 -17 -2 -29 -6 -26 -10 6 -20 -19 -20 -48 0 -18 2 -19 10 -7 5
8 10 11 10 7 0 -5 -9 -20 -20 -34 -19 -24 -19 -26 -3 -39 10 -7 23 -14 29 -14
28 0 46 -40 51 -115 4 -51 11 -79 20 -82 8 -3 13 -21 13 -47 0 -25 3 -36 9
-28 22 36 55 -85 55 -208 0 -70 -4 -93 -23 -129 -12 -23 -18 -40 -12 -36 6 3
11 1 11 -4 0 -6 6 -11 14 -11 9 0 12 -7 10 -17 -3 -12 4 -24 20 -33 14 -8 51
-40 82 -70 32 -30 54 -46 50 -35 -13 33 -12 50 4 51 8 0 24 5 34 9 14 6 24 2
39 -19 15 -21 22 -25 29 -14 15 21 -2 -52 -23 -101 -21 -47 -23 -61 -11 -61 4
0 12 15 18 33 38 108 62 158 97 209 38 54 41 62 45 144 8 149 -27 342 -95 524
-20 52 -75 177 -124 278 -106 220 -106 220 -83 236 15 12 15 13 -7 12 -23 -1
-24 2 -24 66 0 59 -3 70 -24 90 -14 13 -19 15 -12 6 7 -9 14 -38 16 -65 l5
-48 -17 30 c-9 17 -17 35 -18 40 -1 6 -5 18 -9 28 -5 10 -6 20 -4 23 3 2 -6
17 -21 33 -37 40 -73 164 -126 424 -45 222 -101 419 -147 512 -114 228 -220
350 -378 430 -82 41 -173 66 -215 58z m53 -379 c12 -8 22 -12 22 -8 0 19 35
-27 71 -95 23 -42 50 -85 60 -97 19 -20 19 -20 -58 -39 -43 -10 -85 -19 -93
-20 -32 -3 -60 -18 -60 -30 0 -15 27 -45 40 -45 5 0 10 -14 12 -32 2 -23 11
-36 33 -48 17 -10 36 -15 44 -12 10 4 11 -1 6 -16 -6 -20 -3 -22 42 -22 33 0
62 8 91 25 l44 25 38 -32 c64 -51 126 -207 137 -343 4 -48 1 -56 -48 -129 -62
-91 -112 -136 -152 -136 -16 0 -26 -4 -22 -10 3 -5 0 -10 -7 -10 -7 0 -19 9
-26 20 -7 11 -18 20 -25 20 -6 0 -20 14 -29 30 l-17 30 29 0 c30 0 41 14 18
23 -8 3 -6 7 7 12 11 3 28 11 37 16 10 5 32 9 49 9 37 0 35 23 -2 28 -37 5
-44 18 -25 47 l17 26 -78 -7 c-43 -4 -86 -11 -95 -15 -22 -12 -24 -12 -42 7
-23 23 -21 74 3 74 12 0 21 9 25 26 6 22 11 25 39 22 27 -2 33 1 35 20 3 19
-1 22 -27 22 -16 0 -33 -4 -36 -10 -7 -11 -64 -14 -89 -4 -11 4 -16 19 -16 53
0 77 -20 210 -38 254 l-17 42 -5 -29 -5 -30 -30 32 c-35 38 -46 39 -126 12
-66 -22 -90 -19 -64 10 8 9 13 24 9 34 -5 13 -2 15 12 10 11 -4 24 -13 31 -21
9 -12 12 -11 18 7 5 16 1 26 -15 37 -41 29 -68 58 -75 80 -7 27 28 67 73 81
40 14 129 72 162 107 21 22 30 25 60 20 19 -4 45 -13 58 -21z m200 -291 c3
-20 0 -21 -40 -16 -54 7 -58 11 -33 29 29 21 69 14 73 -13z m6 -41 c2 -4 -14
-8 -37 -9 -23 -1 -53 -4 -67 -7 -21 -5 -20 -4 5 8 33 16 91 21 99 8z m16 -68
c0 -14 -9 -28 -21 -35 -15 -8 -19 -8 -15 0 4 6 2 11 -4 11 -6 0 -4 10 6 25 9
14 12 30 8 37 -6 10 -3 9 9 -1 9 -7 17 -24 17 -37z m-78 -26 c9 -5 7 -8 -7 -8
-32 0 -49 16 -41 36 7 18 8 18 22 0 8 -11 20 -23 26 -28z m-306 -33 c18 -14
17 -15 -11 -8 -16 4 -45 7 -62 7 -20 0 -28 3 -20 8 20 13 72 9 93 -7z m-51
-25 c3 -5 1 -10 -4 -10 -6 0 -11 5 -11 10 0 6 2 10 4 10 3 0 8 -4 11 -10z m89
-40 c10 -15 10 -142 -1 -217 -4 -36 -9 -43 -28 -43 -12 0 -34 6 -48 13 -40 21
-127 104 -127 121 0 17 5 20 52 30 40 9 104 67 85 77 -9 5 -12 19 -9 38 l4 31
32 -18 c17 -9 35 -24 40 -32z m-687 -282 c-3 -8 -6 -5 -6 6 -1 11 2 17 5 13 3
-3 4 -12 1 -19z m968 -53 c-34 -28 -78 -34 -69 -10 4 8 14 15 24 15 11 0 22 5
25 10 3 6 16 10 28 10 21 -1 20 -2 -8 -25z m-85 -215 c0 -5 -2 -10 -4 -10 -3
0 -8 5 -11 10 -3 6 -1 10 4 10 6 0 11 -4 11 -10z m1 -323 c-8 -8 -11 -7 -11 4
0 9 3 19 7 23 4 4 9 2 11 -4 3 -7 -1 -17 -7 -23z m600 -84 c13 -16 12 -17 -3
-4 -17 13 -22 21 -14 21 2 0 10 -8 17 -17z m-225 -1414 c19 -22 19 -22 -3 -8
-13 8 -23 17 -23 21 0 12 6 9 26 -13z"/>
<path d="M1048 1993 c6 -2 18 -2 25 0 6 3 1 5 -13 5 -14 0 -19 -2 -12 -5z"/>
<path d="M920 1900 c-8 -5 -11 -12 -7 -16 4 -4 13 -2 19 4 6 6 10 14 7 16 -2
3 -11 1 -19 -4z"/>
<path d="M1355 1750 c10 -11 20 -20 23 -20 3 0 -3 9 -13 20 -10 11 -20 20 -23
20 -3 0 3 -9 13 -20z"/>
<path d="M860 1705 c0 -5 9 -32 20 -60 17 -45 19 -47 19 -20 1 17 -8 44 -19
60 -11 17 -20 26 -20 20z"/>
<path d="M882 1567 c-20 -24 -18 -59 4 -81 19 -20 51 -6 64 27 7 18 9 19 9 4
2 -33 52 -175 66 -187 18 -15 19 -6 5 21 -7 13 -7 19 0 19 5 0 10 -4 10 -10 0
-16 42 -12 62 7 17 15 18 15 18 0 0 -10 5 -17 10 -17 6 0 10 4 10 9 0 6 -4 13
-10 16 -5 3 -10 16 -10 29 0 52 -61 64 -87 17 l-17 -28 -30 91 c-30 87 -32 91
-62 93 -18 2 -36 -3 -42 -10z"/>
<path d="M2452 1413 c-68 -69 -121 -127 -119 -129 8 -8 126 85 144 113 l18 27
5 -54 5 -55 24 70 c13 39 32 85 43 104 40 71 -1 45 -120 -76z"/>
<path d="M2303 1415 c0 -27 2 -38 4 -22 2 15 2 37 0 50 -2 12 -4 0 -4 -28z"/>
<path d="M2263 1325 c0 -22 2 -30 4 -17 2 12 2 30 0 40 -3 9 -5 -1 -4 -23z"/>
<path d="M1118 1334 c-5 -4 -8 -19 -8 -34 0 -14 -4 -30 -9 -35 -6 -6 -4 -22 4
-40 l13 -30 1 28 c1 16 5 36 9 45 10 20 1 77 -10 66z"/>
<path d="M2680 1336 c0 -12 60 -119 82 -146 11 -14 1 11 -22 55 -40 77 -60
107 -60 91z"/>
<path d="M2322 1235 c0 -16 2 -22 5 -12 2 9 2 23 0 30 -3 6 -5 -1 -5 -18z"/>
<path d="M1276 1054 c-36 -35 -9 -92 38 -80 33 8 42 40 19 70 -21 30 -36 32
-57 10z"/>
<path d="M2327 1013 c-4 -3 -7 -13 -7 -22 1 -13 3 -13 11 2 11 19 8 33 -4 20z"/>
<path d="M2001 994 c0 -11 3 -14 6 -6 3 7 2 16 -1 19 -3 4 -6 -2 -5 -13z"/>
<path d="M1831 929 c-13 -5 -21 -12 -18 -15 3 -3 18 1 34 10 31 17 21 20 -16
5z"/>
<path d="M2020 875 c-14 -8 -20 -14 -14 -15 5 0 19 7 30 15 24 18 16 19 -16 0z"/>
<path d="M1950 835 c-14 -8 -20 -14 -14 -15 5 0 19 7 30 15 24 18 16 19 -16 0z"/>
<path d="M1361 810 c-17 -29 -37 -174 -47 -340 -13 -211 11 -103 36 163 5 59
14 117 20 128 6 11 10 32 8 47 l-3 27 -14 -25z"/>
<path d="M2418 823 c7 -3 16 -2 19 1 4 3 -2 6 -13 5 -11 0 -14 -3 -6 -6z"/>
<path d="M1970 780 c-9 -6 -10 -10 -3 -10 6 0 15 5 18 10 8 12 4 12 -15 0z"/>
<path d="M1151 689 c-1 -31 6 -78 14 -105 8 -27 24 -97 35 -156 23 -128 37
-159 92 -198 43 -32 68 -38 67 -17 -1 34 -38 100 -65 116 -38 23 -49 51 -68
174 -8 54 -24 117 -35 140 -11 23 -24 56 -30 72 -9 27 -9 25 -10 -26z"/>
<path d="M2205 725 c61 -48 90 -61 113 -49 28 14 20 21 -46 39 -26 7 -56 16
-67 20 l-20 6 20 -16z"/>
<path d="M910 689 c19 -24 38 -45 42 -47 5 -2 8 -11 8 -19 0 -13 3 -13 15 -3
14 12 11 18 -22 52 -57 59 -84 70 -43 17z"/>
<path d="M2412 690 c0 -19 2 -27 5 -17 2 9 2 25 0 35 -3 9 -5 1 -5 -18z"/>
<path d="M1017 654 c-4 -4 -7 -19 -6 -33 l0 -26 10 24 c10 26 8 47 -4 35z"/>
<path d="M3118 543 c7 -3 16 -2 19 1 4 3 -2 6 -13 5 -11 0 -14 -3 -6 -6z"/>
<path d="M3140 480 c0 -7 8 -9 20 -5 10 3 33 -1 49 -10 17 -8 57 -18 88 -20
56 -5 114 -18 161 -36 30 -12 62 -11 62 0 0 6 -30 25 -67 43 -63 31 -75 33
-190 37 -89 2 -123 0 -123 -9z"/>
<path d="M847 446 c-29 -30 -30 -59 -3 -120 24 -53 26 -70 26 -192 l0 -134 30
0 c28 0 30 3 30 37 0 68 -22 257 -37 313 -7 30 -17 68 -21 84 -7 28 -8 28 -25
12z"/>
<path d="M2596 383 c11 -10 37 -31 57 -47 23 -19 33 -32 26 -37 -7 -4 -8 -9
-1 -13 5 -3 12 1 15 8 7 17 -37 63 -85 89 -32 18 -32 18 -12 0z"/>
<path d="M770 333 c0 -21 -7 -64 -15 -95 -10 -40 -12 -65 -5 -89 6 -19 10 -60
10 -91 0 -50 3 -58 19 -58 17 0 20 11 26 96 4 52 4 116 0 142 -3 26 -9 64 -12
85 -7 50 -23 57 -23 10z"/>
<path d="M3332 338 c3 -7 15 -14 29 -16 23 -2 23 -2 5 13 -24 18 -39 20 -34 3z"/>
<path d="M594 186 c-28 -58 -34 -80 -25 -89 6 -6 11 -23 11 -38 0 -38 10 -59
26 -59 10 0 14 15 14 58 1 31 5 88 10 127 5 38 7 72 5 74 -3 2 -21 -31 -41
-73z"/>
<path d="M3400 211 c0 -14 44 -74 59 -79 8 -3 -1 16 -19 42 -34 47 -40 53 -40
37z"/>
<path d="M3375 150 c29 -130 37 -150 62 -150 20 0 23 4 21 27 -2 14 -14 38
-27 52 -12 14 -32 42 -43 61 -15 27 -18 30 -13 10z"/>
</g>
</svg>
